<svg xmlns="http://www.w3.org/2000/svg" viewBox="0 0 116.624 21.469">
<style>.color { fill: rgba(255, 255, 255, 0.40) }</style>
  <path class="color" d="M168.869,479.005l0.258-3-1.116-1.288-2.147.172-1.631,2.232-0.086,4.036,0.945,0.515,7.3-.086,2.232-2.4,0.429-5.753-2.146-2.747-8.758-.773-2.49.945-8.328,5.237H135.9c-1.975.773-2.061,1.975-1.116,3.177s3.692,4.207,3.692,4.207l2.061,0.515,5.752-1.116,0.086,1.8-2.061,1.889s3.091,3.177,6.955,2.834a11.583,11.583,0,0,0,5.667-1.718c0.858,0.687,5.581,3.95,8.328,3.263s7.642-5.5,7.642-5.5a3.239,3.239,0,0,0-2.919-1.545c-2.233-.086-7.127-0.172-7.127-0.172l-2.576-3.349v-4.551l2.92-3.263h5.5l2.919,2.233-0.687,3.091Zm23.44-3.692v5.238l-2.661-2.662Zm0.258,9.617v6.439c-7.212,0-13.566-3.606-13.566-8.242,0-4.723,1.2-9.617,7.727-10.991-2.06,4.208-2.4,8.157-.515,9.874S192.567,484.93,192.567,484.93Zm23.563-5.925-0.257-3,1.116-1.288,2.146,0.172,1.632,2.232,0.086,4.036-0.945.515-7.3-.086-2.232-2.4-0.43-5.753,2.147-2.747,8.758-.773,2.49,0.945,8.328,5.237H249.1c1.974,0.773,2.06,1.975,1.116,3.177s-3.692,4.207-3.692,4.207l-2.061.515-5.752-1.116-0.086,1.8,2.06,1.889s-3.091,3.177-6.954,2.834a11.583,11.583,0,0,1-5.667-1.718c-0.859.687-5.581,3.95-8.329,3.263s-7.641-5.5-7.641-5.5a3.239,3.239,0,0,1,2.919-1.545c2.233-.086,7.127-0.172,7.127-0.172l2.575-3.349v-4.551l-2.919-3.263h-5.5l-2.919,2.233,0.687,3.091Zm-23.821-3.692v5.238l2.661-2.662Zm0.124,9.617v6.439c7.212,0,13.566-3.606,13.566-8.242,0-4.723-1.2-9.617-7.728-10.991,2.061,4.208,2.405,8.157.515,9.874S192.433,484.93,192.433,484.93Z" transform="translate(-134.188 -469.906)"/>
</svg>
